<svg xmlns="http://www.w3.org/2000/svg" width="22" height="22" fill="none"><path fill="#000" d="M11 0A11 11 0 0 0 6.6 21.07c-.04-.76-.01-1.69.19-2.52.2-.9 1.41-6 1.41-6s-.35-.7-.35-1.74c0-1.63.94-2.84 2.12-2.84 1 0 1.48.75 1.48 1.65 0 1-.64 2.5-.97 3.9-.27 1.17.59 2.12 1.74 2.12 2.08 0 3.49-2.68 3.49-5.85 0-2.4-1.63-4.21-4.58-4.21a5.2 5.2 0 0 0-5.42 5.26c0 .96.29 1.64.73 2.16.2.24.23.34.16.62l-.23.88c-.07.28-.3.38-.55.27-1.53-.62-2.25-2.3-2.25-4.2 0-3.12 2.63-6.87 7.86-6.87 4.2 0 6.97 3.04 6.97 6.3 0 4.32-2.4 7.54-5.94 7.54-1.19 0-2.3-.64-2.69-1.37L9 19.19c-.23.85-.69 1.7-1.1 2.36A11 11 0 1 0 11 0Z"/></svg>